<svg width="211" height="200" viewBox="0 0 211 200" fill="none" xmlns="http://www.w3.org/2000/svg">
<path d="M105 0C125.869 0 143.748 12.787 151.239 30.9521C154.396 30.3275 157.66 30 161 30C188.614 30 211 52.3858 211 80C211 92.7938 206.192 104.463 198.288 113.306L204.521 130.517L187.322 122.514C179.677 127.257 170.659 130 161 130C140.13 130 122.251 117.213 114.76 99.0469C111.603 99.6715 108.34 100 105 100C101.986 100 99.0349 99.7327 96.168 99.2217C88.6348 117.295 70.8026 130 50 130C40.3688 130 31.3754 127.274 23.7441 122.556L6.6377 130.517L12.8232 113.432C4.85255 104.574 0 92.8542 0 80C0 52.3858 22.3858 30 50 30C53.0134 30 55.9645 30.2665 58.8311 30.7773C66.3644 12.7046 84.1976 0 105 0ZM50 42C29.0132 42 12 59.0132 12 80C12 100.987 29.0132 118 50 118C65.399 118 78.6577 108.84 84.627 95.6719C67.168 87.8721 55 70.3581 55 50C55 47.4187 55.1951 44.8831 55.5723 42.4072C53.7535 42.14 51.893 42 50 42ZM161 42C158.766 42 156.577 42.1937 154.449 42.5635C154.811 44.9898 155 47.4729 155 50C155 70.0333 143.217 87.3113 126.204 95.29C132.089 108.662 145.453 118 161 118C181.987 118 199 100.987 199 80C199 59.0132 181.987 42 161 42ZM105 12C89.6012 12 76.3414 21.1593 70.3721 34.3271C87.8317 42.1267 100 59.6415 100 80C100 82.581 99.8039 85.1162 99.4268 87.5918C101.246 87.8592 103.107 88 105 88C107.234 88 109.422 87.8053 111.55 87.4355C111.188 85.0095 111 82.5267 111 80C111 59.9669 122.783 42.6878 139.795 34.709C133.91 21.3374 120.547 12 105 12ZM67.1963 46.1055C67.0659 47.3859 67 48.6852 67 50C67 64.797 75.4581 77.6175 87.8027 83.8936C87.933 82.6134 88 81.3145 88 80C88 65.2025 79.5416 52.3813 67.1963 46.1055ZM142.848 46.6074C131.024 53.0487 123 65.5875 123 80C123 81.1431 123.053 82.2742 123.151 83.3916C134.976 76.9504 143 64.4127 143 50C143 48.8566 142.947 47.7252 142.848 46.6074Z" fill="url(#paint0_linear_61_53)"/>
<path d="M206.105 165H211V199.967H206.105V181.834L203.657 190.226H198.762L196.314 181.834V199.967H191.469V165H196.314L201.209 181.834L206.105 165Z" fill="#282828"/>
<path d="M176.655 195.071H186.446V199.967H171.81V165H176.655V195.071Z" fill="#282828"/>
<path d="M156.996 195.071H166.786V199.967H152.15V165H156.996V195.071Z" fill="#282828"/>
<path d="M136.946 199.967H132.101V165H136.946V199.967Z" fill="#282828"/>
<path d="M122.151 199.967L121.402 195.071H115.257L114.508 199.967H109.613L114.858 165H121.801L127.096 199.967H122.151ZM116.007 190.226H120.652L118.354 174.791L116.007 190.226Z" fill="#282828"/>
<path d="M104.628 183.782H90.4414V178.937H104.628V183.782Z" fill="#282828"/>
<path d="M85.3842 199.967H80.5388V165H85.3842V199.967Z" fill="#282828"/>
<path d="M75.5157 165V169.895H70.6204V199.967H65.775V169.895H60.8796V165H75.5157Z" fill="#282828"/>
<path d="M49.0417 195.071H58.8324V199.967H44.1963V165H49.0417V195.071Z" fill="#282828"/>
<path d="M34.2781 165.05H39.1735V197.07C39.1735 198.668 37.8747 199.967 36.2762 199.967H27.4346C25.8361 199.967 24.5374 198.668 24.5374 197.07V165H29.3828V195.071H34.2781V165.05Z" fill="#282828"/>
<path d="M14.6361 165H19.5315V199.967H14.6361V181.834L12.1884 190.226H7.29307L4.8454 181.834V199.967H0V165H4.8454L9.74075 181.834L14.6361 165Z" fill="#282828"/>
<defs>
<linearGradient id="paint0_linear_61_53" x1="0" y1="0" x2="211" y2="131" gradientUnits="userSpaceOnUse">
<stop stop-color="#3459FF"/>
<stop offset="1" stop-color="#B318D2"/>
</linearGradient>
</defs>
</svg>
